<?xml version="1.0" encoding="iso-8859-1"?>
<!-- Generator: Adobe Illustrator 29.2.1, SVG Export Plug-In . SVG Version: 9.03 Build 55982)  -->
<svg version="1.1" id="Layer_1" xmlns="http://www.w3.org/2000/svg" xmlns:xlink="http://www.w3.org/1999/xlink" x="0px" y="0px"
	 viewBox="0 0 3500 3500" style="enable-background:new 0 0 3500 3500;" xml:space="preserve">
<g>
	<path style="fill:#F2F2F2;" d="M1646.891,639.702c742.025-320.604,648.732,395.771,915.254,834.947
		c104.928,208.762,193.348,449.429,183.187,692.658c6.073,466.841-506.327,830.641-941.7,710.256
		c-214.323-57.303-378.726-222.678-567.071-330.86c-152.097-94.159-323.462-156.453-456.541-276.53
		c-262.121-252.561-246.602-747.995-57.652-1042.421c98.476-136.643,262.709-233.736,424.526-316.69
		c171.626-85.807,318.777-191.504,489.297-266.76L1646.891,639.702z"/>
	<g>
		<g id="XMLID_00000004512380714025845370000002358235834929072057_">
			<g>
				<path style="fill:#A796F9;" d="M2288.659,2630.358H1275.524h-213.41c-106.544,0-229.456-43.003-299.416-112.963
					c-69.639-69.96-112.963-166.235-112.963-272.779c0-213.089,172.653-385.742,385.742-385.742h25.673
					c-0.321-5.776-0.321-11.553-0.321-17.65c0-282.728,229.135-511.863,511.862-511.863c194.155,0,362.957,108.149,449.926,267.324
					c15.083-2.567,30.808-4.172,46.854-4.172c146.98,0,266.361,119.381,266.361,266.361c0,10.911-0.963,21.501-2.246,32.092
					c92.103,11.232,173.616,55.84,232.023,121.307c58.728,65.788,94.35,152.115,94.35,247.106
					C2659.96,2464.123,2493.725,2630.358,2288.659,2630.358z"/>
			</g>
			<g>
				
					<path style="fill:none;stroke:#000000;stroke-width:32.0917;stroke-linecap:round;stroke-linejoin:round;stroke-miterlimit:10;" d="
					M1275.524,2630.358h-213.41c-106.544,0-229.456-43.003-299.416-112.963c-69.639-69.96-112.963-166.235-112.963-272.779
					c0-213.089,172.653-385.742,385.742-385.742h25.673c-0.321-5.776-0.321-11.553-0.321-17.65
					c0-282.728,229.135-511.863,511.862-511.863c194.155,0,362.957,108.149,449.926,267.324c15.083-2.567,30.808-4.172,46.854-4.172
					c146.98,0,266.361,119.381,266.361,266.361c0,10.911-0.963,21.501-2.246,32.092c92.103,11.232,173.616,55.84,232.023,121.307
					c58.728,65.788,94.35,152.115,94.35,247.106c0,204.745-166.235,370.98-371.301,370.98H1275.524z"/>
			</g>
		</g>
		<g id="XMLID_00000183229929753125429560000006781488484590657678_">
			<g>
				<path style="fill:#FFFFFF;" d="M2932.739,1322.622l29.524,91.461l-221.433-23.106v-111.679v-3.851h126.762
					C2897.117,1275.447,2923.433,1294.381,2932.739,1322.622z"/>
				<path style="fill:#FFFFFF;" d="M3071.696,1636.478c0,43.966-35.301,79.587-78.946,79.587c-43.966,0-79.267-35.622-79.267-79.587
					c0-43.645,35.301-78.945,79.267-78.945C3036.396,1557.533,3071.696,1592.834,3071.696,1636.478z"/>
				<path style="fill:#FFFFFF;" d="M2666.699,1716.066c-43.645,0-78.946-35.622-78.946-79.587c0-43.645,35.301-78.945,78.946-78.945
					c43.966,0,79.266,35.301,79.266,78.945C2745.966,1680.444,2710.665,1716.066,2666.699,1716.066z"/>
				<path style="fill:#22D6BF;" d="M3071.696,1636.478c0-43.645-35.301-78.945-78.946-78.945c-43.966,0-79.267,35.301-79.267,78.945
					h-167.519c0-43.645-35.301-78.945-79.266-78.945c-43.645,0-78.946,35.301-78.946,78.945h-53.593
					c-15.083,0-27.599-12.516-27.599-27.599v-194.797l62.9-109.433c10.27-17.971,29.845-29.203,50.705-29.203h120.665v3.851v111.679
					l221.433,23.106l140.241,31.45c27.599,5.776,47.496,31.129,47.496,59.37v103.977c0,15.083-12.516,27.599-27.92,27.599H3071.696z
					"/>
				<rect x="2003.685" y="945.544" style="fill:#FFFFFF;" width="578.934" height="78.625"/>
				<path style="fill:#22D6BF;" d="M2582.619,1024.169v-78.625h-578.934v78.625h-61.616c-15.404,0-27.92-12.516-27.92-27.92V766.794
					c0-15.083,12.516-27.599,27.92-27.599h702.166c15.404,0,27.92,12.516,27.92,27.599v229.456c0,15.404-12.516,27.92-27.92,27.92
					H2582.619z"/>
				<rect x="1114.424" y="789.258" style="fill:#22D6BF;" width="343.381" height="380.928"/>
				<rect x="1114.424" y="589.648" style="fill:#22D6BF;" width="343.381" height="199.61"/>
				<path style="fill:#22D6BF;" d="M785.163,1309.785v458.59H350v-458.59H785.163z M672.521,1544.696c0-2.567,0-5.135-0.321-7.702
					c-3.851-54.556-49.421-97.238-104.619-97.238c-58.086,0-104.94,46.854-104.94,104.94c0,57.765,46.854,104.619,104.94,104.619
					C625.347,1649.315,672.521,1602.461,672.521,1544.696z"/>
				<path style="fill:#FFFFFF;" d="M675.089,1258.438c1.284,0,2.567-1.284,2.567-2.567c0-1.605-1.284-2.567-2.567-2.567
					c-1.605,0-2.567,0.963-2.567,2.567C672.521,1257.155,673.484,1258.438,675.089,1258.438z M728.361,1258.438
					c1.605,0,2.567-1.284,2.567-2.567c0-1.605-0.963-2.567-2.567-2.567c-1.284,0-2.567,0.963-2.567,2.567
					C725.794,1257.155,727.077,1258.438,728.361,1258.438z M785.163,1205.166v104.619H350v-104.619H785.163z"/>
				<path style="fill:#FFFFFF;" d="M672.521,1544.696c0,57.765-47.175,104.619-104.94,104.619
					c-58.086,0-104.94-46.854-104.94-104.619c0,0,49.742-17.329,104.94,0c55.198,17.009,104.619-7.702,104.619-7.702
					C672.521,1539.562,672.521,1542.129,672.521,1544.696z"/>
				<path style="fill:#FFFFFF;" d="M462.642,1544.696c0-58.086,46.854-104.94,104.94-104.94c55.198,0,100.768,42.682,104.619,97.238
					c0,0-49.421,24.711-104.619,7.702C512.384,1527.367,462.642,1544.696,462.642,1544.696z"/>
			</g>
			<g>
				
					<polygon style="fill:none;stroke:#000000;stroke-width:32.0917;stroke-linecap:round;stroke-linejoin:round;stroke-miterlimit:10;" points="
					1457.805,789.258 1457.805,1170.186 1114.424,1170.186 1114.424,789.258 1114.424,589.648 1457.805,589.648 				"/>
				
					<line style="fill:none;stroke:#000000;stroke-width:32.0917;stroke-linecap:round;stroke-linejoin:round;stroke-miterlimit:10;" x1="1114.424" y1="789.258" x2="1457.805" y2="789.258"/>
				
					<line style="fill:none;stroke:#000000;stroke-width:32.0917;stroke-linecap:round;stroke-linejoin:round;stroke-miterlimit:10;" x1="1168.338" y1="659.607" x2="1168.338" y2="695.871"/>
				
					<line style="fill:none;stroke:#000000;stroke-width:32.0917;stroke-linecap:round;stroke-linejoin:round;stroke-miterlimit:10;" x1="1168.338" y1="856.971" x2="1168.338" y2="893.235"/>
				
					<polygon style="fill:none;stroke:#000000;stroke-width:32.0917;stroke-linecap:round;stroke-linejoin:round;stroke-miterlimit:10;" points="
					785.163,1309.785 785.163,1768.375 350,1768.375 350,1309.785 350,1205.166 785.163,1205.166 				"/>
				
					<line style="fill:none;stroke:#000000;stroke-width:32.0917;stroke-linecap:round;stroke-linejoin:round;stroke-miterlimit:10;" x1="350" y1="1309.785" x2="785.163" y2="1309.785"/>
				
					<path style="fill:none;stroke:#000000;stroke-width:32.0917;stroke-linecap:round;stroke-linejoin:round;stroke-miterlimit:10;" d="
					M672.201,1536.994c0.321,2.567,0.321,5.135,0.321,7.702c0,57.765-47.175,104.619-104.94,104.619
					c-58.086,0-104.94-46.854-104.94-104.619c0-58.086,46.854-104.94,104.94-104.94
					C622.779,1439.756,668.35,1482.438,672.201,1536.994z"/>
				
					<path style="fill:none;stroke:#000000;stroke-width:32.0917;stroke-linecap:round;stroke-linejoin:round;stroke-miterlimit:10;" d="
					M462.642,1544.696c0,0,49.742-17.329,104.94,0c55.198,17.009,104.619-7.702,104.619-7.702"/>
				
					<path style="fill:none;stroke:#000000;stroke-width:32.0917;stroke-linecap:round;stroke-linejoin:round;stroke-miterlimit:10;" d="
					M730.928,1255.871c0,1.284-0.963,2.567-2.567,2.567c-1.284,0-2.567-1.284-2.567-2.567c0-1.605,1.284-2.567,2.567-2.567
					C729.966,1253.304,730.928,1254.266,730.928,1255.871z"/>
				
					<path style="fill:none;stroke:#000000;stroke-width:32.0917;stroke-linecap:round;stroke-linejoin:round;stroke-miterlimit:10;" d="
					M677.656,1255.871c0,1.284-1.284,2.567-2.567,2.567c-1.605,0-2.567-1.284-2.567-2.567c0-1.605,0.963-2.567,2.567-2.567
					C676.372,1253.304,677.656,1254.266,677.656,1255.871z"/>
				
					<path style="fill:none;stroke:#000000;stroke-width:32.0917;stroke-linecap:round;stroke-linejoin:round;stroke-miterlimit:10;" d="
					M2587.754,1636.478h-53.593c-15.083,0-27.599-12.516-27.599-27.599v-194.797l62.9-109.433
					c10.27-17.971,29.845-29.203,50.705-29.203h120.665h126.762c29.524,0,55.84,18.934,65.146,47.175l29.524,91.461l140.241,31.45
					c27.599,5.776,47.496,31.129,47.496,59.37v103.977c0,15.083-12.516,27.599-27.92,27.599h-50.384"/>
				
					<line style="fill:none;stroke:#000000;stroke-width:32.0917;stroke-linecap:round;stroke-linejoin:round;stroke-miterlimit:10;" x1="2913.484" y1="1636.478" x2="2745.966" y2="1636.478"/>
				
					<path style="fill:none;stroke:#000000;stroke-width:32.0917;stroke-linecap:round;stroke-linejoin:round;stroke-miterlimit:10;" d="
					M3071.696,1636.478c0,43.966-35.301,79.587-78.946,79.587c-43.966,0-79.267-35.622-79.267-79.587
					c0-43.645,35.301-78.945,79.267-78.945C3036.396,1557.533,3071.696,1592.834,3071.696,1636.478z"/>
				
					<path style="fill:none;stroke:#000000;stroke-width:32.0917;stroke-linecap:round;stroke-linejoin:round;stroke-miterlimit:10;" d="
					M2745.966,1636.478c0,43.966-35.301,79.587-79.266,79.587c-43.645,0-78.946-35.622-78.946-79.587
					c0-43.645,35.301-78.945,78.946-78.945C2710.665,1557.533,2745.966,1592.834,2745.966,1636.478z"/>
				
					<polyline style="fill:none;stroke:#000000;stroke-width:32.0917;stroke-linecap:round;stroke-linejoin:round;stroke-miterlimit:10;" points="
					2740.831,1279.298 2740.831,1390.977 2962.264,1414.083 				"/>
				
					<path style="fill:none;stroke:#000000;stroke-width:32.0917;stroke-linecap:round;stroke-linejoin:round;stroke-miterlimit:10;" d="
					M2003.685,1024.169h-61.616c-15.404,0-27.92-12.516-27.92-27.92V766.794c0-15.083,12.516-27.599,27.92-27.599h702.166
					c15.404,0,27.92,12.516,27.92,27.599v229.456c0,15.404-12.516,27.92-27.92,27.92h-61.616"/>
				
					<polyline style="fill:none;stroke:#000000;stroke-width:32.0917;stroke-linecap:round;stroke-linejoin:round;stroke-miterlimit:10;" points="
					2003.685,1024.169 2003.685,945.544 2582.619,945.544 2582.619,1024.169 				"/>
			</g>
		</g>
		<g>
			<g id="XMLID_00000125586381265456686550000013125531441252647309_">
				<g>
					<path style="fill:#FFFFFF;" d="M1931.924,2062.52v768.761c0,60.246-48.863,109.109-109.109,109.109h-391.182
						c-60.246,0-109.109-48.863-109.109-109.109V2062.52c0-60.246,48.863-109.109,109.109-109.109h391.182
						C1883.061,1953.411,1931.924,2002.274,1931.924,2062.52z"/>
				</g>
				<g>
					
						<path style="fill:none;stroke:#000000;stroke-width:32.0917;stroke-linecap:round;stroke-linejoin:round;stroke-miterlimit:10;" d="
						M1822.814,2940.39h-391.182c-60.246,0-109.109-48.863-109.109-109.109V2062.52c0-60.246,48.863-109.109,109.109-109.109
						h391.182c60.246,0,109.109,48.863,109.109,109.109v768.761C1931.924,2891.527,1883.061,2940.39,1822.814,2940.39z"/>
				</g>
			</g>
			
				<path style="fill:none;stroke:#000000;stroke-width:32.0917;stroke-linecap:round;stroke-linejoin:round;stroke-miterlimit:10;" d="
				M1634.066,2032.917c0,3.762-3.05,6.812-6.812,6.812c-3.762,0-6.812-3.05-6.812-6.812c0-3.762,3.05-6.812,6.812-6.812
				C1631.016,2026.105,1634.066,2029.155,1634.066,2032.917z"/>
			
				<line style="fill:none;stroke:#000000;stroke-width:16.0458;stroke-linecap:round;stroke-linejoin:round;stroke-miterlimit:10;" x1="1759.226" y1="2900.804" x2="1495.282" y2="2900.804"/>
			<g>
				
					<path style="fill:none;stroke:#000000;stroke-width:32.0917;stroke-linecap:round;stroke-linejoin:round;stroke-miterlimit:10;" d="
					M1554.62,2556.109c40.115-40.115,105.153-40.115,145.267,0"/>
				
					<path style="fill:none;stroke:#000000;stroke-width:32.0917;stroke-linecap:round;stroke-linejoin:round;stroke-miterlimit:10;" d="
					M1606.524,2615.194c11.449-11.449,30.011-11.449,41.46,0"/>
				
					<path style="fill:none;stroke:#000000;stroke-width:32.0917;stroke-linecap:round;stroke-linejoin:round;stroke-miterlimit:10;" d="
					M1501.287,2497.32c69.57-69.57,182.364-69.57,251.933,0"/>
				
					<path style="fill:none;stroke:#000000;stroke-width:32.0917;stroke-linecap:round;stroke-linejoin:round;stroke-miterlimit:10;" d="
					M1432.966,2441.635c107.303-107.302,281.275-107.302,388.577,0"/>
			</g>
		</g>
		
			<polyline style="fill:none;stroke:#000000;stroke-width:32.0917;stroke-linecap:round;stroke-linejoin:round;stroke-miterlimit:10;" points="
			2121.152,1597.491 2390.622,1391.866 2390.622,1024.215 		"/>
		
			<line style="fill:none;stroke:#000000;stroke-width:32.0917;stroke-linecap:round;stroke-linejoin:round;stroke-miterlimit:10;" x1="1263.85" y1="1170.25" x2="1263.85" y2="1428.843"/>
		
			<polyline style="fill:none;stroke:#000000;stroke-width:32.0917;stroke-linecap:round;stroke-linejoin:round;stroke-miterlimit:10;" points="
			531.076,1768.288 631.812,1896.773 868.642,1896.773 		"/>
		
			<polyline style="fill:none;stroke:#000000;stroke-width:32.0917;stroke-linecap:round;stroke-linejoin:round;stroke-miterlimit:10;" points="
			2828.263,1636.726 2828.263,2069.518 2607.608,2069.518 		"/>
	</g>
</g>
</svg>
