<?xml version="1.0" encoding="iso-8859-1"?>
<!-- Generator: Adobe Illustrator 23.0.5, SVG Export Plug-In . SVG Version: 6.00 Build 0)  -->
<svg version="1.1" xmlns="http://www.w3.org/2000/svg" xmlns:xlink="http://www.w3.org/1999/xlink" x="0px" y="0px"
	 viewBox="0 0 512 512" style="enable-background:new 0 0 512 512;" xml:space="preserve">
<g id="_x32_4_Time_Managment">
	<g>
		<g>
			<linearGradient id="SVGID_1_" gradientUnits="userSpaceOnUse" x1="284.9663" y1="-205.8512" x2="226.5783" y2="880.1656">
				<stop  offset="0" style="stop-color:#EAE9FE"/>
				<stop  offset="0.4236" style="stop-color:#EEEEFE"/>
				<stop  offset="0.8967" style="stop-color:#FBFBFF"/>
				<stop  offset="1" style="stop-color:#FFFFFF"/>
			</linearGradient>
			<path style="fill:url(#SVGID_1_);" d="M468.836,264.275c-9.501-7.393-20.976-13.763-25.395-24.961
				c-6.01-15.229,3.596-31.571,9.261-46.931c17.297-46.899-4.903-102.439-44.732-132.645
				c-75.982-57.623-224.302-37.425-245.028,42.219c-8.768,33.692,6.941,72.131-9.131,103.013
				c-20.278,38.966-74.073,41.594-108.719,58.921C2.169,285.358-6.419,332.1,24.365,367.686
				c11.304,13.068,25.769,22.07,36.136,36.348c15.001,20.659,23.415,43.504,43.486,60.545
				c28.263,23.996,75.517,29.946,100.538,2.586c14.089-15.407,18.674-38.106,34.054-52.225
				c20.245-18.586,52.242-16.086,78.004-6.514c25.762,9.571,49.654,25.026,76.789,29.381c42.426,6.81,87.917-18.085,105.053-57.489
				S502.748,290.664,468.836,264.275z"/>
		</g>
		<path style="fill:#2769FD;" d="M376.697,76.98c0,8.098-6.53,14.628-14.628,14.628h-49.891c-8.033,0-14.563-6.53-14.563-14.628
			c0-4.049,1.633-7.706,4.245-10.318c2.677-2.677,6.269-4.31,10.318-4.31h49.891C370.167,62.352,376.697,68.947,376.697,76.98z"/>
		<polygon style="fill:#EDEDED;" points="363.202,91.638 363.202,185.346 311.113,142.321 311.113,91.638 		"/>
		<polygon style="fill:#EDEDED;" points="382.691,230.977 382.691,449.647 78.99,449.647 78.99,230.899 230.821,105.209 		"/>
		<path style="fill:#F9BB40;" d="M273.521,196.848c0,23.556-19.102,42.658-42.658,42.658s-42.734-19.102-42.734-42.658
			c0-23.632,19.178-42.733,42.734-42.733S273.521,173.216,273.521,196.848z"/>
		<path style="fill:#2769FD;" d="M298.882,286.92v162.728H162.799V286.92c0-8.306,6.734-15.04,15.04-15.04h106.002
			C292.148,271.88,298.882,278.614,298.882,286.92z"/>
		<path style="fill:#2769FD;" d="M415.614,225.469c0.273,2.397-0.48,4.725-2.055,6.574l-9.45,11.505
			c-3.219,3.835-8.902,4.382-12.668,1.233l-11.984-9.861L230.792,111.863L69.32,245.67c-1.643,1.369-3.63,2.054-5.753,2.054h-0.889
			c-2.397-0.206-4.588-1.37-6.095-3.287l-9.381-11.436c-3.218-3.835-2.671-9.519,1.164-12.668L222.574,76.05
			c4.794-3.903,11.709-3.903,16.435,0l173.386,143.324C414.244,220.881,415.408,223.072,415.614,225.469z"/>
		<path style="fill:#FF5859;" d="M439.576,290.442c36.421,36.421,36.438,95.477,0.016,131.898
			c-36.421,36.421-95.477,36.405-131.898-0.017s-36.421-95.46,0-131.882C344.115,254.021,403.155,254.021,439.576,290.442z"/>
		<path style="fill:#EDEDED;" d="M445.565,356.382c0,39.725-32.197,71.94-71.922,71.94c-39.725,0-71.922-32.215-71.922-71.94
			s32.197-71.922,71.922-71.922C413.368,284.46,445.565,316.658,445.565,356.382z"/>
		<path style="fill:#2769FD;" d="M384.97,356.39c0,6.256-5.071,11.33-11.327,11.33s-11.327-5.074-11.327-11.33
			c0-6.256,5.071-11.327,11.327-11.327S384.97,350.134,384.97,356.39z"/>
		<path style="fill:#332E8E;" d="M230.863,149.947c-25.861,0-46.901,21.04-46.901,46.901c0,25.821,21.04,46.825,46.901,46.825
			c25.821,0,46.826-21.004,46.826-46.825C277.689,170.987,256.683,149.947,230.863,149.947z M230.863,235.338
			c-21.265,0-38.565-17.265-38.565-38.489c0-21.265,17.301-38.565,38.565-38.565c21.224,0,38.491,17.301,38.491,38.565
			C269.353,218.072,252.087,235.338,230.863,235.338z"/>
		<path style="fill:#332E8E;" d="M53.305,247.008c4.752,6.055,13.332,6.316,18.674,1.872l2.842-2.355v198.956H63.095
			c-2.302,0-4.168,1.867-4.168,4.168c0,2.301,1.865,4.168,4.168,4.168H162.8h136.082h99.705c2.302,0,4.168-1.867,4.168-4.168
			c0-0.105-0.023-0.203-0.031-0.306c14.577-4.531,28.298-12.534,39.819-24.055c37.985-37.985,37.978-99.798-0.016-137.794
			c-15.629-15.627-35.291-24.809-55.667-27.577v-13.51l1.908,1.57c5.529,4.626,13.844,3.837,18.564-1.785l9.401-11.448
			c5.052-5.925,3.568-14.306-1.681-18.581l-47.68-39.413V95.001c7.789-2.295,13.495-9.5,13.495-18.022
			c0-10.364-8.432-18.796-18.796-18.796h-49.892c-10.13,0-18.73,8.204-18.73,18.796c0,8.541,5.711,15.756,13.499,18.035v31.787
			l-65.283-53.964c-6.254-5.169-15.39-5.177-21.748,0.003L45.72,217.112c-5.732,4.714-6.326,13.071-1.741,18.532L53.305,247.008z
			 M294.714,299.275c-24.587,33.941-24.587,80.276,0,114.217v31.987H166.968V286.922c0-5.994,4.877-10.873,10.871-10.873h106.002
			c5.995,0,10.873,4.879,10.873,10.873V299.275z M303.049,445.478v-21.995c0.567,0.596,1.115,1.204,1.7,1.789
			c8.768,8.768,18.811,15.485,29.529,20.207H303.049z M436.648,419.395c-34.734,34.734-91.258,34.729-126.005-0.016
			c-34.734-34.737-34.734-91.254,0-125.991c17.368-17.366,40.181-26.048,62.995-26.048c22.813,0,45.626,8.683,62.994,26.048
			C471.376,328.133,471.383,384.661,436.648,419.395z M378.524,259.134c-27.94-1.391-55.439,9.083-75.474,30.149v-2.361
			c0-10.59-8.616-19.208-19.208-19.208H177.839c-10.59,0-19.207,8.618-19.207,19.208v158.557H83.157V239.617l147.637-122.342
			c2.358,1.951-21.549-17.836,147.73,122.273V259.134z M301.782,76.979c0-5.934,4.804-10.46,10.395-10.46h49.892
			c5.767,0,10.46,4.693,10.46,10.46c0,5.767-4.693,10.46-10.46,10.46h-49.892C306.445,87.439,301.782,82.746,301.782,76.979z
			 M315.281,95.806h43.753v74.053l-43.753-36.167V95.806z M51.023,223.543L225.206,79.281c3.26-2.654,7.95-2.662,11.148-0.019
			l173.408,143.344c1.884,1.534,2.46,4.577,0.575,6.789l-9.421,11.472c-1.743,2.076-4.796,2.393-6.828,0.695
			C200.001,80.979,238.652,112.958,233.45,108.654c-1.543-1.279-3.777-1.275-5.317,0.001L66.654,242.466
			c-1.759,1.466-4.945,1.745-6.849-0.673l-9.411-11.469C48.673,228.268,48.954,225.243,51.023,223.543z"/>
		<path style="fill:#332E8E;" d="M297.553,356.382c0,41.965,34.134,76.108,76.09,76.108s76.09-34.143,76.09-76.108
			c0-41.954-34.134-76.089-76.09-76.089S297.553,314.427,297.553,356.382z M373.644,288.628c37.361,0,67.755,30.393,67.755,67.753
			c0,37.369-30.394,67.772-67.755,67.772s-67.755-30.403-67.755-67.772C305.889,319.021,336.283,288.628,373.644,288.628z"/>
		<path style="fill:#332E8E;" d="M373.644,313.261c2.302,0,4.168-1.867,4.168-4.168v-6.952c0-2.301-1.865-4.168-4.168-4.168
			s-4.168,1.867-4.168,4.168v6.952C369.476,311.394,371.341,313.261,373.644,313.261z"/>
		<path style="fill:#332E8E;" d="M373.644,399.522c-2.302,0-4.168,1.867-4.168,4.168v6.952c0,2.301,1.865,4.168,4.168,4.168
			s4.168-1.867,4.168-4.168v-6.952C377.811,401.389,375.946,399.522,373.644,399.522z"/>
		<path style="fill:#332E8E;" d="M407.087,327.115c1.066,0,2.133-0.407,2.947-1.221l4.917-4.917c1.628-1.628,1.628-4.265,0-5.893
			c-1.628-1.628-4.265-1.628-5.893,0l-4.917,4.917c-1.628,1.628-1.628,4.265,0,5.893
			C404.955,326.708,406.021,327.115,407.087,327.115z"/>
		<path style="fill:#332E8E;" d="M337.253,386.891l-4.917,4.917c-1.628,1.628-1.628,4.265,0,5.893
			c0.814,0.814,1.88,1.221,2.947,1.221c1.066,0,2.133-0.407,2.947-1.221l4.917-4.917c1.628-1.628,1.628-4.265,0-5.893
			C341.518,385.263,338.881,385.263,337.253,386.891z"/>
		<path style="fill:#332E8E;" d="M420.941,360.56h6.953c2.302,0,4.168-1.867,4.168-4.168c0-2.301-1.865-4.168-4.168-4.168h-6.953
			c-2.302,0-4.168,1.867-4.168,4.168C416.773,358.693,418.638,360.56,420.941,360.56z"/>
		<path style="fill:#332E8E;" d="M319.392,360.56h6.953c2.302,0,4.168-1.867,4.168-4.168c0-2.301-1.865-4.168-4.168-4.168h-6.953
			c-2.302,0-4.168,1.867-4.168,4.168C315.224,358.693,317.09,360.56,319.392,360.56z"/>
		<path style="fill:#332E8E;" d="M409.057,397.701c0.814,0.814,1.88,1.221,2.947,1.221c1.066,0,2.133-0.407,2.947-1.221
			c1.628-1.628,1.628-4.265,0-5.893l-4.917-4.917c-1.628-1.628-4.265-1.628-5.893,0c-1.628,1.628-1.628,4.265,0,5.893
			L409.057,397.701z"/>
		<path style="fill:#332E8E;" d="M337.25,325.897c0.814,0.814,1.88,1.221,2.947,1.221c1.066,0,2.133-0.407,2.947-1.221
			c1.628-1.628,1.628-4.265,0-5.893l-4.917-4.917c-1.628-1.628-4.265-1.628-5.893,0c-1.628,1.628-1.628,4.265,0,5.893
			L337.25,325.897z"/>
		<path style="fill:#332E8E;" d="M355.707,378.493c1.066,0,2.133-0.407,2.947-1.221l7.39-7.39c2.248,1.272,4.838,2.007,7.6,2.007
			c8.544,0,15.495-6.952,15.495-15.499c0-7.1-4.806-13.084-11.331-14.909v-16.802c0-2.301-1.865-4.168-4.168-4.168
			s-4.168,1.867-4.168,4.168v16.804c-6.521,1.827-11.323,7.809-11.323,14.907c0,2.761,0.734,5.349,2.003,7.597l-7.392,7.392
			c-1.628,1.628-1.628,4.265,0,5.893C353.574,378.086,354.64,378.493,355.707,378.493z M373.644,349.232
			c3.948,0,7.159,3.21,7.159,7.158c0,3.951-3.211,7.163-7.159,7.163s-7.159-3.213-7.159-7.163
			C366.484,352.442,369.696,349.232,373.644,349.232z"/>
	</g>
</g>
<g id="Layer_1">
</g>
</svg>
