<svg class="svg-icon" style="width: 1em; height: 1em;vertical-align: middle;fill: currentColor;overflow: hidden;" viewBox="0 0 1024 1024" version="1.1" xmlns="http://www.w3.org/2000/svg"><path d="M512 512m-501.76 0a501.76 501.76 0 1 0 1003.52 0 501.76 501.76 0 1 0-1003.52 0Z" fill="#508DEF" /><path d="M512 1024c-136.8064 0-265.4208-53.248-362.0864-149.9136C53.248 777.4208 0 648.8064 0 512S53.248 246.5792 149.9136 149.9136C246.5792 53.248 375.1936 0 512 0s265.4208 53.248 362.0864 149.9136C970.752 246.5792 1024 375.1936 1024 512s-53.248 265.4208-149.9136 362.0864C777.4208 970.752 648.8064 1024 512 1024z m0-1003.52C241.0496 20.48 20.48 241.0496 20.48 512s220.5696 491.52 491.52 491.52 491.52-220.5696 491.52-491.52S782.9504 20.48 512 20.48z" fill="#1C1D21" /><path d="M442.7776 745.472v74.9568c0 35.2256 28.4672 63.6928 63.6928 63.6928h11.4688c35.2256 0 63.6928-28.4672 63.6928-63.6928V745.472h-138.8544z" fill="#FF8939" /><path d="M517.7344 894.3616h-11.4688c-40.7552 0-73.9328-33.1776-73.9328-73.9328V808.96c0-5.7344 4.5056-10.24 10.24-10.24s10.24 4.5056 10.24 10.24v11.4688c0 29.4912 23.9616 53.4528 53.4528 53.4528h11.4688c29.4912 0 53.4528-23.9616 53.4528-53.4528V755.712h-118.1696v10.24c0 5.7344-4.5056 10.24-10.24 10.24s-10.24-4.5056-10.24-10.24v-20.48c0-5.7344 4.5056-10.24 10.24-10.24h138.6496c5.7344 0 10.24 4.5056 10.24 10.24v74.9568c-0.2048 40.7552-33.1776 73.9328-73.9328 73.9328z" fill="#1C1D21" /><path d="M581.2224 605.184v-36.864c0-7.9872-6.3488-14.336-14.336-14.336h-109.9776c-7.9872 0-14.336 6.3488-14.336 14.336v36.864c0 7.9872 6.3488 14.336 14.336 14.336h109.9776c7.9872 0 14.336-6.3488 14.336-14.336z" fill="#FF8939" /><path d="M566.8864 629.76h-109.9776c-13.5168 0-24.576-11.0592-24.576-24.576v-36.864c0-13.5168 11.0592-24.576 24.576-24.576h109.9776c13.5168 0 24.576 11.0592 24.576 24.576v36.864c0 13.5168-10.8544 24.576-24.576 24.576z m-109.7728-65.536c-2.2528 0-4.096 1.8432-4.096 4.096v36.864c0 2.2528 1.8432 4.096 4.096 4.096h109.9776c2.2528 0 4.096-1.8432 4.096-4.096v-36.864c0-2.2528-1.8432-4.096-4.096-4.096h-109.9776zM512 1024c-5.7344 0-10.24-4.5056-10.24-10.24v-129.6384c0-5.7344 4.5056-10.24 10.24-10.24s10.24 4.5056 10.24 10.24V1013.76c0 5.7344-4.5056 10.24-10.24 10.24zM478.6176 755.712c-5.7344 0-10.24-4.5056-10.24-10.24v-44.032c0-5.7344 4.5056-10.24 10.24-10.24s10.24 4.5056 10.24 10.24V745.472c0 5.7344-4.7104 10.24-10.24 10.24zM545.3824 755.712c-5.7344 0-10.24-4.5056-10.24-10.24v-44.032c0-5.7344 4.5056-10.24 10.24-10.24s10.24 4.5056 10.24 10.24V745.472c0 5.7344-4.5056 10.24-10.24 10.24z" fill="#1C1D21" /><path d="M696.1152 287.744c0-102.6048-83.968-185.5488-186.7776-184.1152-98.304 1.4336-178.9952 81.5104-181.4528 179.8144-1.6384 69.0176 34.816 129.6384 89.9072 162.6112 26.624 15.7696 42.8032 44.6464 42.8032 75.5712v32.5632h102.8096v-33.3824c0-30.9248 16.7936-58.9824 43.2128-74.9568 53.6576-32.3584 89.4976-91.136 89.4976-158.1056z" fill="#FFC5B3" /><path d="M563.4048 564.224h-102.8096c-5.7344 0-10.24-4.5056-10.24-10.24v-32.5632c0-27.2384-14.5408-52.8384-37.6832-66.7648-60.2112-35.84-96.4608-101.5808-94.8224-171.6224 1.2288-50.176 21.7088-97.4848 57.7536-133.3248 36.0448-35.6352 83.5584-55.7056 133.7344-56.5248 52.4288-0.8192 101.9904 19.0464 139.264 55.9104 37.2736 36.864 57.9584 86.016 57.9584 138.4448 0 68.8128-35.2256 131.2768-94.4128 166.7072-23.9616 14.336-38.2976 39.1168-38.2976 66.1504v33.3824c-0.2048 5.9392-4.7104 10.4448-10.4448 10.4448z m-92.5696-20.48h82.3296v-23.1424c0-34.4064 18.0224-65.7408 48.128-83.7632 52.8384-31.744 84.5824-87.4496 84.5824-149.0944 0-46.8992-18.432-90.9312-51.8144-123.904-32.768-32.3584-75.9808-49.9712-122.0608-49.9712h-2.6624c-92.3648 1.4336-169.1648 77.4144-171.2128 169.7792-1.4336 62.6688 31.1296 121.4464 84.992 153.3952 29.4912 17.6128 47.7184 49.9712 47.7184 84.3776v22.3232z" fill="#1C1D21" /><path d="M434.176 184.32c-3.2768 0-6.3488-1.6384-8.3968-4.5056-3.2768-4.7104-2.048-11.0592 2.6624-14.336 3.2768-2.2528 6.7584-4.5056 10.24-6.5536 4.9152-2.8672 11.0592-1.2288 13.9264 3.6864 2.8672 4.9152 1.2288 11.0592-3.6864 13.9264-3.072 1.8432-5.9392 3.6864-8.8064 5.5296-1.8432 1.6384-3.8912 2.2528-5.9392 2.2528zM373.9648 294.7072h-0.2048c-5.7344-0.2048-10.0352-4.9152-10.0352-10.4448 0.6144-28.4672 9.6256-56.1152 26.0096-79.872 3.2768-4.7104 9.6256-5.7344 14.336-2.6624 4.7104 3.2768 5.7344 9.6256 2.6624 14.336-14.1312 20.48-21.9136 44.2368-22.528 68.8128-0.2048 5.3248-4.7104 9.8304-10.24 9.8304z" fill="#FFECE9" /><path d="M512 160.3584c-50.176 29.0816-84.1728 83.3536-84.1728 145.6128 0 62.2592 33.792 116.5312 84.1728 145.6128 50.176-29.0816 84.1728-83.3536 84.1728-145.6128 0-62.2592-33.9968-116.5312-84.1728-145.6128z" fill="#0ABFB2" /><path d="M512 461.824c-1.8432 0-3.4816-0.4096-5.12-1.4336-55.0912-31.9488-89.2928-91.136-89.2928-154.624s34.2016-122.6752 89.2928-154.624c3.2768-1.8432 7.168-1.8432 10.24 0 55.0912 31.9488 89.2928 91.136 89.2928 154.624s-34.2016 122.6752-89.2928 154.624c-1.6384 1.024-3.2768 1.4336-5.12 1.4336z m0-289.5872c-45.6704 28.8768-73.9328 79.4624-73.9328 133.7344s28.2624 104.8576 73.9328 133.7344c45.6704-28.8768 73.9328-79.4624 73.9328-133.7344 0-54.0672-28.2624-104.8576-73.9328-133.7344z" fill="#1C1D21" /><path d="M512 564.224c-5.7344 0-10.24-4.5056-10.24-10.24V160.3584c0-5.7344 4.5056-10.24 10.24-10.24s10.24 4.5056 10.24 10.24v393.6256c0 5.7344-4.5056 10.24-10.24 10.24z" fill="#1C1D21" /><path d="M512 298.5984c-2.6624 0-5.12-1.024-7.168-2.8672L447.2832 239.616c-4.096-3.8912-4.096-10.4448-0.2048-14.5408s10.4448-4.096 14.5408-0.2048l57.5488 56.1152c4.096 3.8912 4.096 10.4448 0.2048 14.5408-2.048 2.048-4.7104 3.072-7.3728 3.072z" fill="#1C1D21" /><path d="M512 298.5984c-2.6624 0-5.3248-1.024-7.3728-3.072-3.8912-4.096-3.8912-10.4448 0.2048-14.5408l57.5488-56.1152c4.096-3.8912 10.4448-3.8912 14.5408 0.2048 3.8912 4.096 3.8912 10.4448-0.2048 14.5408l-57.5488 56.1152c-2.048 2.048-4.5056 2.8672-7.168 2.8672zM512 389.9392c-2.6624 0-5.12-1.024-7.168-2.8672l-81.5104-79.4624c-4.096-3.8912-4.096-10.4448-0.2048-14.5408s10.4448-4.096 14.5408-0.2048l81.5104 79.4624c4.096 3.8912 4.096 10.4448 0.2048 14.5408-2.048 2.048-4.7104 3.072-7.3728 3.072z" fill="#1C1D21" /><path d="M512 389.9392c-2.6624 0-5.3248-1.024-7.3728-3.072-3.8912-4.096-3.8912-10.4448 0.2048-14.5408l81.5104-79.4624c4.096-3.8912 10.4448-3.8912 14.5408 0.2048 3.8912 4.096 3.8912 10.4448-0.2048 14.5408L519.168 387.072c-2.048 1.8432-4.5056 2.8672-7.168 2.8672z" fill="#1C1D21" /><path d="M779.264 454.656c-19.6608 11.4688-32.9728 32.5632-32.9728 57.1392 0 24.3712 13.312 45.6704 32.9728 57.1392 19.6608-11.4688 32.9728-32.5632 32.9728-57.1392 0-24.576-13.312-45.6704-32.9728-57.1392z" fill="#0ABFB2" /><path d="M779.264 578.9696c-1.8432 0-3.4816-0.4096-5.12-1.4336-23.552-13.5168-38.0928-38.912-38.0928-65.9456 0-27.0336 14.5408-52.224 38.0928-65.9456 3.2768-1.8432 7.168-1.8432 10.24 0 23.552 13.5168 38.0928 38.912 38.0928 65.9456s-14.5408 52.224-38.0928 65.9456c-1.6384 1.024-3.2768 1.4336-5.12 1.4336z m0-112.0256c-14.1312 10.4448-22.7328 27.0336-22.7328 44.8512s8.6016 34.4064 22.7328 44.8512c14.1312-10.4448 22.7328-27.0336 22.7328-44.8512s-8.6016-34.4064-22.7328-44.8512z" fill="#1C1D21" /><path d="M779.264 862.208c-5.7344 0-10.24-4.5056-10.24-10.24V568.7296c0-5.7344 4.5056-10.24 10.24-10.24s10.24 4.5056 10.24 10.24V851.968c0 5.7344-4.5056 10.24-10.24 10.24z" fill="#1C1D21" /><path d="M918.3232 686.2848c-19.6608 11.4688-44.6464 12.288-65.9456 0.2048-21.0944-12.0832-32.9728-34.2016-33.1776-56.9344 19.6608-11.4688 44.6464-12.288 65.9456-0.2048 21.2992 12.0832 33.1776 34.2016 33.1776 56.9344z" fill="#0ABFB2" /><path d="M885.1456 705.3312c-13.1072 0-26.2144-3.2768-37.888-10.0352-23.552-13.5168-38.0928-38.7072-38.2976-65.7408 0-3.6864 1.8432-6.9632 5.12-8.8064 23.552-13.5168 52.6336-13.7216 76.1856-0.2048s38.0928 38.7072 38.2976 65.7408c0 3.6864-1.8432 6.9632-5.12 8.8064-11.6736 6.7584-24.9856 10.24-38.2976 10.24z m-55.0912-69.8368c2.048 17.408 12.288 33.1776 27.648 41.984s34.2016 9.6256 50.176 2.6624c-2.048-17.408-12.288-33.1776-27.648-41.984-15.36-8.8064-34.2016-9.6256-50.176-2.6624z" fill="#1C1D21" /><path d="M819.4048 639.7952c-1.6384 0-3.4816-0.4096-5.12-1.4336L774.144 615.424c-4.9152-2.8672-6.5536-9.0112-3.8912-13.9264 2.8672-4.9152 9.0112-6.5536 13.9264-3.8912l40.1408 22.9376c4.9152 2.8672 6.5536 9.0112 3.8912 13.9264-1.8432 3.4816-5.3248 5.3248-8.8064 5.3248z" fill="#1C1D21" /><path d="M640.2048 686.2848c19.6608 11.4688 44.6464 12.288 65.9456 0.2048 21.0944-12.0832 32.9728-34.2016 33.1776-56.9344-19.6608-11.4688-44.6464-12.288-65.9456-0.2048-21.2992 12.0832-33.1776 34.2016-33.1776 56.9344z" fill="#0ABFB2" /><path d="M673.1776 705.3312c-13.312 0-26.4192-3.4816-38.2976-10.24-3.072-1.8432-5.12-5.3248-5.12-8.8064 0.2048-27.0336 14.7456-52.224 38.2976-65.7408 23.552-13.5168 52.6336-13.312 76.1856 0.2048 3.072 1.8432 5.12 5.3248 5.12 8.8064-0.2048 27.0336-14.7456 52.224-38.2976 65.7408-11.6736 6.7584-24.7808 10.0352-37.888 10.0352z m-22.528-25.1904c15.9744 7.168 34.816 6.144 50.176-2.6624s25.6-24.576 27.648-41.984c-15.9744-7.168-34.816-6.144-50.176 2.6624s-25.6 24.576-27.648 41.984z" fill="#1C1D21" /><path d="M739.1232 639.7952c-3.4816 0-6.9632-1.8432-8.8064-5.12-2.8672-4.9152-1.024-11.264 3.8912-13.9264l40.1408-22.9376c4.9152-2.8672 11.264-1.024 13.9264 3.8912 2.8672 4.9152 1.024 11.264-3.8912 13.9264l-40.1408 22.9376c-1.6384 0.8192-3.4816 1.2288-5.12 1.2288z" fill="#1C1D21" /><path d="M244.736 454.656c-19.6608 11.4688-32.9728 32.5632-32.9728 57.1392 0 24.3712 13.312 45.6704 32.9728 57.1392 19.6608-11.4688 32.9728-32.5632 32.9728-57.1392 0-24.576-13.312-45.6704-32.9728-57.1392z" fill="#0ABFB2" /><path d="M244.736 578.9696c-1.8432 0-3.4816-0.4096-5.12-1.4336-23.552-13.5168-38.0928-38.912-38.0928-65.9456s14.5408-52.224 38.0928-65.9456c3.072-1.8432 7.168-1.8432 10.24 0 23.552 13.5168 38.0928 38.912 38.0928 65.9456 0 27.0336-14.5408 52.224-38.0928 65.9456-1.6384 1.024-3.2768 1.4336-5.12 1.4336z m0-112.0256c-14.1312 10.4448-22.7328 27.0336-22.7328 44.8512s8.6016 34.4064 22.7328 44.8512c14.1312-10.4448 22.7328-27.0336 22.7328-44.8512s-8.6016-34.4064-22.7328-44.8512z" fill="#1C1D21" /><path d="M244.736 862.208c-5.7344 0-10.24-4.5056-10.24-10.24V568.7296c0-5.7344 4.5056-10.24 10.24-10.24s10.24 4.5056 10.24 10.24V851.968c0 5.7344-4.5056 10.24-10.24 10.24z" fill="#1C1D21" /><path d="M383.7952 686.2848c-19.6608 11.4688-44.6464 12.288-65.9456 0.2048-21.0944-12.0832-32.9728-34.2016-33.1776-56.9344 19.6608-11.4688 44.6464-12.288 65.9456-0.2048 21.2992 12.0832 33.1776 34.2016 33.1776 56.9344z" fill="#0ABFB2" /><path d="M350.8224 705.3312c-13.1072 0-26.2144-3.2768-37.888-10.0352-23.552-13.5168-38.0928-38.7072-38.2976-65.7408 0-3.6864 1.8432-6.9632 5.12-8.8064 23.552-13.5168 52.6336-13.7216 76.1856-0.2048 23.552 13.5168 38.0928 38.7072 38.2976 65.7408 0 3.6864-1.8432 6.9632-5.12 8.8064-11.8784 6.7584-25.1904 10.24-38.2976 10.24z m-55.296-69.8368c2.048 17.408 12.288 33.1776 27.648 41.984 15.36 8.8064 34.2016 9.6256 50.176 2.6624-2.048-17.408-12.288-33.1776-27.648-41.984-15.36-8.8064-34.2016-9.6256-50.176-2.6624z" fill="#1C1D21" /><path d="M284.8768 639.7952c-1.6384 0-3.4816-0.4096-5.12-1.4336L239.616 615.424c-4.9152-2.8672-6.5536-9.0112-3.8912-13.9264 2.8672-4.9152 9.0112-6.5536 13.9264-3.8912l40.1408 22.9376c4.9152 2.8672 6.5536 9.0112 3.8912 13.9264-1.8432 3.4816-5.3248 5.3248-8.8064 5.3248z" fill="#1C1D21" /><path d="M105.6768 686.2848c19.6608 11.4688 44.6464 12.288 65.9456 0.2048 21.0944-12.0832 32.9728-34.2016 33.1776-56.9344-19.6608-11.4688-44.6464-12.288-65.9456-0.2048-21.2992 12.0832-33.1776 34.2016-33.1776 56.9344z" fill="#0ABFB2" /><path d="M138.8544 705.3312c-13.312 0-26.4192-3.4816-38.2976-10.24-3.072-1.8432-5.12-5.3248-5.12-8.8064 0.2048-27.0336 14.7456-52.224 38.2976-65.7408 23.552-13.5168 52.6336-13.312 76.1856 0.2048 3.072 1.8432 5.12 5.3248 5.12 8.8064-0.2048 27.0336-14.7456 52.224-38.2976 65.7408-11.8784 6.7584-24.9856 10.0352-37.888 10.0352z m-22.528-25.1904c15.9744 7.168 34.816 6.144 50.176-2.6624s25.6-24.576 27.648-41.984c-15.9744-7.168-34.816-6.144-50.176 2.6624-15.5648 8.8064-25.8048 24.576-27.648 41.984z" fill="#1C1D21" /><path d="M204.5952 639.7952c-3.4816 0-6.9632-1.8432-8.8064-5.12-2.8672-4.9152-1.024-11.264 3.8912-13.9264l40.1408-22.9376c4.9152-2.8672 11.264-1.024 13.9264 3.8912 2.8672 4.9152 1.024 11.264-3.8912 13.9264l-40.1408 22.9376c-1.6384 0.8192-3.2768 1.2288-5.12 1.2288z" fill="#1C1D21" /><path d="M347.9552 986.3168v-106.0864c0-15.5648-12.6976-28.2624-28.2624-28.2624H142.9504c55.7056 60.416 125.952 106.9056 205.0048 134.3488z" fill="#C67552" /><path d="M347.9552 996.5568c-1.024 0-2.2528-0.2048-3.2768-0.6144-79.4624-27.4432-151.9616-74.9568-209.3056-137.0112-2.6624-3.072-3.4816-7.3728-1.8432-11.0592s5.3248-6.144 9.4208-6.144h176.7424c21.2992 0 38.5024 17.2032 38.5024 38.5024v106.0864c0 3.2768-1.6384 6.3488-4.3008 8.3968-1.6384 1.2288-3.6864 1.8432-5.9392 1.8432zM167.1168 862.208c48.7424 47.9232 107.1104 85.4016 170.5984 109.568v-91.5456c0-10.0352-7.9872-18.0224-18.0224-18.0224H167.1168z" fill="#1C1D21" /><path d="M676.6592 986.3168v-106.0864c0-15.5648 12.6976-28.2624 28.2624-28.2624h176.7424c-55.5008 60.416-125.7472 106.9056-205.0048 134.3488z" fill="#C67552" /><path d="M676.6592 996.5568c-2.048 0-4.096-0.6144-5.9392-1.8432-2.6624-1.8432-4.3008-5.12-4.3008-8.3968v-106.0864c0-21.2992 17.2032-38.5024 38.5024-38.5024h176.7424c4.096 0 7.7824 2.4576 9.4208 6.144s0.8192 7.9872-1.8432 11.0592c-57.344 62.2592-129.6384 109.568-209.3056 137.0112-1.024 0.4096-2.048 0.6144-3.2768 0.6144z m28.2624-134.3488c-10.0352 0-18.0224 7.9872-18.0224 18.0224v91.5456c63.488-24.1664 121.856-61.6448 170.5984-109.568h-152.576zM478.6176 660.48c-5.7344 0-10.24-4.5056-10.24-10.24V620.544c0-5.7344 4.5056-10.24 10.24-10.24s10.24 4.5056 10.24 10.24v29.696c0 5.7344-4.7104 10.24-10.24 10.24zM545.3824 660.48c-5.7344 0-10.24-4.5056-10.24-10.24V620.544c0-5.7344 4.5056-10.24 10.24-10.24s10.24 4.5056 10.24 10.24v29.696c0 5.7344-4.5056 10.24-10.24 10.24z" fill="#1C1D21" /></svg>